# xmcd
#
# Track frame offsets:
# 150
# 19554
# 40024
# 54117
# 66415
# 83127
# 101679
# 120964
# 136918
# 150431
# 170274
# 199272
# 211367
# 235217
# 246600
# 264533
# 276673
# 288732
# 300693
# 314933
# 334921
# 344475
#
# Disc length: 4758 seconds
#
# Revision: 1
# Processed by: cddbd v1.5.1PL0 Copyright (c) Steve Scherf et al.
# Submitted via: Axialis_AX_CDPlayer 2.6
#
DISCID=4f129416
DTITLE=Arlo Guthrie - The Best of Arlo Guthrie, Vol. II
DYEAR=1900
DGENRE=
TTITLE0=If I could only touch your life feat. Leah Kunkel
TTITLE1=City of New Orleans
TTITLE2=Coming into Los Angeles
TTITLE3=Connection
TTITLE4=Cowboy song
TTITLE5=Darkest hour
TTITLE6=Days are short
TTITLE7=Drowning man
TTITLE8=Eplioque
TTITLE9=Evangelina
TTITLE10=Gabriel's mother's highway ballad no. 16 blues
TTITLE11=Garden song
TTITLE12=Gates of Eden
TTITLE13=Guabi, guabi
TTITLE14=Hobo's lullybye
TTITLE15=I ain't marching anymore
TTITLE16=Jamica farewell
TTITLE17=Last to leave
TTITLE18=Last train
TTITLE19=Manzanillo Bay
TTITLE20=Mapleview Rag
TTITLE21=My love
EXTD=
EXTT0=
EXTT1=
EXTT2=
EXTT3=
EXTT4=
EXTT5=
EXTT6=
EXTT7=
EXTT8=
EXTT9=
EXTT10=
EXTT11=
EXTT12=
EXTT13=
EXTT14=
EXTT15=
EXTT16=
EXTT17=
EXTT18=
EXTT19=
EXTT20=
EXTT21=
PLAYORDER=
